<?xml version="1.0" standalone="no"?>
<!DOCTYPE svg PUBLIC "-//W3C//DTD SVG 20010904//EN"
 "http://www.w3.org/TR/2001/REC-SVG-20010904/DTD/svg10.dtd">
<svg version="1.0" xmlns="http://www.w3.org/2000/svg"
 width="512.000000pt" height="512.000000pt" viewBox="0 0 512.000000 512.000000"
 preserveAspectRatio="xMidYMid meet">
<metadata>
Created by potrace 1.14, written by Peter Selinger 2001-2017
</metadata>
<g transform="translate(0.000000,512.000000) scale(0.100000,-0.100000)"
fill="#000000" stroke="none">
<path d="M63 4433 c-55 -64 -83 -108 -33 -53 44 49 92 110 87 110 -2 0 -26
-26 -54 -57z"/>
<path d="M3011 4344 c0 -11 3 -14 6 -6 3 7 2 16 -1 19 -3 4 -6 -2 -5 -13z"/>
<path d="M38 4127 l-38 -19 0 -258 0 -258 50 -36 c51 -37 80 -45 80 -23 0 16
-22 76 -38 104 -7 12 -12 35 -12 52 0 17 -5 31 -11 31 -6 0 -9 18 -8 45 2 24
0 47 -4 51 -4 4 -7 29 -7 56 0 29 -4 48 -11 48 -11 0 -9 17 6 68 6 17 3 22
-10 22 -14 0 -16 5 -10 28 3 15 12 34 18 42 17 21 39 62 35 64 -2 1 -20 -7
-40 -17z"/>
<path d="M652 4088 c-40 -52 -54 -124 -25 -135 37 -14 91 99 62 133 -14 17
-24 18 -37 2z"/>
<path d="M1183 3918 c-15 -17 -43 -94 -43 -115 0 -27 27 5 45 52 20 50 18 88
-2 63z"/>
<path d="M820 3862 c0 -17 81 -71 97 -65 17 7 12 13 -49 48 -27 15 -48 22 -48
17z"/>
<path d="M4806 3815 c-9 -24 13 -111 35 -140 31 -39 49 -33 49 18 0 75 -65
170 -84 122z"/>
<path d="M1539 3794 c-20 -20 -104 -45 -115 -34 -5 4 -44 10 -86 12 l-77 3
-34 -90 c-19 -49 -42 -107 -51 -127 -9 -21 -14 -38 -12 -38 6 0 40 75 72 159
14 36 26 67 28 69 3 2 14 -2 26 -8 52 -28 225 3 261 46 16 20 6 27 -12 8z"/>
<path d="M4086 3593 c-13 -41 35 -158 65 -158 19 0 24 68 8 109 -15 39 -38 66
-55 66 -7 0 -15 -8 -18 -17z"/>
<path d="M5 3561 c3 -6 37 -31 75 -56 78 -52 80 -56 52 -145 -12 -37 -25 -58
-42 -67 -13 -6 -28 -19 -33 -29 -7 -13 -6 -15 4 -10 8 4 -3 -8 -24 -26 -31
-28 -37 -39 -36 -73 0 -37 26 -126 28 -98 1 8 15 3 37 -12 47 -32 43 -32 111
3 19 10 21 9 16 -6 -6 -15 -5 -15 11 -3 14 12 17 30 15 115 -1 84 3 112 23
166 19 52 28 65 43 63 11 0 77 -21 147 -45 142 -49 138 -43 138 -160 0 -50 -6
-70 -35 -123 -26 -46 -34 -70 -29 -88 6 -27 29 -43 39 -27 3 5 12 7 19 4 8 -3
17 -1 21 5 11 18 23 12 29 -15 6 -24 8 -25 29 -11 34 21 75 29 80 14 3 -6 6 3
6 21 1 21 6 32 16 32 20 0 20 49 -1 78 -8 12 -12 27 -9 32 3 6 -3 22 -14 36
-15 20 -21 41 -21 80 l0 53 73 4 72 3 -82 2 c-190 5 -478 107 -676 241 -75 50
-94 60 -82 42z m672 -328 c-3 -10 -5 -4 -5 12 0 17 2 24 5 18 2 -7 2 -21 0
-30z m-477 -10 c0 -19 -3 -24 -10 -17 -6 6 -8 18 -4 27 9 24 14 21 14 -10z
m511 -99 c13 -16 12 -16 -8 -3 -18 11 -23 22 -22 54 l1 40 7 -37 c4 -20 14
-45 22 -54z m-591 -84 c0 -5 -4 -10 -10 -10 -5 0 -10 5 -10 10 0 6 5 10 10 10
6 0 10 -4 10 -10z"/>
<path d="M3469 3497 c-41 -34 -69 -99 -68 -154 l2 -48 6 50 c8 62 41 126 78
154 15 11 24 20 18 20 -5 0 -22 -10 -36 -22z"/>
<path d="M1126 3469 c-46 -69 -115 -128 -178 -151 -32 -11 -57 -23 -55 -25 3
-2 30 6 62 18 61 23 152 104 188 167 26 45 15 40 -17 -9z"/>
<path d="M3630 3222 c-49 -5 -57 -17 -20 -32 17 -7 34 -10 37 -6 4 4 13 -4 20
-16 11 -21 12 -22 13 -3 0 11 3 29 6 41 6 22 6 22 -56 16z"/>
<path d="M740 3097 c0 -2 15 -14 33 -27 l32 -23 -24 26 c-21 23 -41 35 -41 24z"/>
<path d="M3983 2933 c-7 -3 13 -34 47 -75 33 -39 65 -83 72 -100 7 -16 23 -31
36 -35 15 -3 21 -11 18 -19 -4 -12 -1 -12 15 -4 31 17 67 -11 75 -58 3 -21 15
-49 25 -63 l19 -24 -9 26 c-15 43 4 59 63 52 36 -4 50 -11 53 -24 3 -11 12
-19 21 -19 8 0 12 3 9 7 -12 11 15 33 40 33 22 0 25 -4 21 -25 -3 -14 -1 -25
3 -25 8 0 13 37 12 93 0 20 14 24 120 35 45 5 77 4 77 -1 0 -5 -20 -33 -45
-61 -25 -29 -45 -63 -45 -75 0 -59 45 -79 93 -41 l25 20 6 -26 c5 -20 11 -24
24 -19 28 12 106 15 112 5 4 -6 19 16 34 48 28 58 28 59 11 93 -18 33 -18 34
1 19 10 -8 27 -23 36 -35 10 -11 18 -15 18 -9 0 7 -14 27 -31 45 -35 37 -59
70 -59 80 0 4 30 19 68 33 80 31 172 82 172 96 0 14 -6 13 -49 -14 -57 -36
-161 -78 -178 -72 -8 3 -11 1 -8 -4 3 -5 -4 -12 -17 -15 -153 -35 -204 -44
-268 -49 l-75 -5 65 12 65 11 -125 8 c-69 5 -145 15 -169 23 -25 8 -54 15 -67
15 -12 0 -27 7 -34 15 -7 8 -21 15 -32 15 -21 0 -202 86 -221 105 -7 6 -18 10
-24 8z m390 -220 c-13 -2 -35 -2 -50 0 -16 2 -5 4 22 4 28 0 40 -2 28 -4z
m115 0 c-10 -2 -26 -2 -35 0 -10 3 -2 5 17 5 19 0 27 -2 18 -5z"/>
<path d="M203 2465 c-13 -23 -3 -85 13 -85 10 0 14 14 14 50 0 50 -11 64 -27
35z"/>
<path d="M4578 2413 c12 -2 32 -2 45 0 12 2 2 4 -23 4 -25 0 -35 -2 -22 -4z"/>
<path d="M4447 2281 c-4 -19 -5 -36 -2 -39 10 -11 16 7 13 40 l-3 33 -8 -34z"/>
<path d="M4550 2282 c0 -10 22 -32 32 -32 4 0 8 9 8 20 0 13 -7 20 -20 20 -11
0 -20 -4 -20 -8z"/>
<path d="M4557 2214 c-9 -10 2 -24 19 -24 8 0 14 7 14 15 0 15 -21 21 -33 9z"/>
<path d="M1875 1890 c-57 -63 -76 -255 -35 -362 23 -62 49 -80 88 -59 23 12
56 93 66 161 10 72 -10 198 -39 242 -28 42 -53 48 -80 18z"/>
<path d="M3707 1875 c-37 -36 -49 -225 -22 -328 30 -114 71 -139 105 -64 41
89 16 355 -37 395 -22 16 -28 15 -46 -3z"/>
<path d="M4910 1673 c-47 -6 -64 -23 -23 -23 31 0 32 -2 35 -47 3 -46 5 -48
34 -51 24 -2 36 3 51 21 10 14 28 26 38 28 10 2 20 10 23 17 2 8 -10 12 -42
12 -40 0 -48 3 -56 25 -5 14 -13 24 -17 23 -5 0 -24 -3 -43 -5z"/>
<path d="M4670 1635 c-15 -18 -42 -19 -58 -3 -16 16 -21 7 -11 -19 7 -20 16
-23 56 -23 26 0 56 7 66 14 16 13 16 14 -7 30 -31 20 -31 20 -46 1z"/>
<path d="M4695 1540 c-16 -7 -13 -9 17 -9 20 -1 40 4 43 9 7 12 -32 12 -60 0z"/>
<path d="M2607 1423 c-15 -24 249 -63 351 -52 37 4 85 17 107 28 l40 20 -48 1
c-28 0 -58 -7 -72 -16 -41 -27 -140 -29 -210 -6 -73 25 -160 38 -168 25z"/>
<path d="M503 768 c-6 -7 -22 -35 -36 -63 -14 -27 -41 -74 -61 -104 -20 -30
-35 -56 -32 -58 8 -8 86 104 117 167 28 59 34 85 12 58z"/>
<path d="M4736 630 c4 -19 10 -42 15 -50 15 -27 10 22 -6 55 l-15 30 6 -35z"/>
<path d="M5065 519 l-50 -49 35 6 c58 11 70 21 70 59 0 19 -1 35 -2 34 -2 0
-25 -23 -53 -50z"/>
<path d="M4754 448 c-4 -7 -8 -88 -9 -180 0 -137 1 -161 10 -130 7 20 18 48
25 62 17 31 39 133 40 181 0 25 -7 42 -23 57 -27 25 -33 27 -43 10z"/>
<path d="M32 20 c-11 -18 -10 -20 13 -20 27 0 28 1 19 24 -8 21 -17 20 -32 -4z"/>
</g>
</svg>
