<svg width="156" height="50" viewBox="0 0 156 50" fill="none" xmlns="http://www.w3.org/2000/svg">
<path d="M0 25C0 11.1929 11.1929 0 25 0H131C144.807 0 156 11.1929 156 25C156 38.8071 144.807 50 131 50H25C11.1929 50 0 38.8071 0 25Z" fill="white"/>
<path d="M31.3291 16.2779C31.0968 16.5528 30.98 16.9053 31.0028 17.2628V32.7506C30.98 33.1081 31.0968 33.4606 31.3291 33.7355L31.382 33.7878L40.1604 25.0939V24.889L31.382 16.23L31.3291 16.2779Z" fill="#5BC9F4"/>
<path d="M43.0832 28.0004L40.16 25.0937V24.8889L43.0876 21.9952L43.1538 22.0301L46.6193 23.9781C47.6113 24.5359 47.6113 25.4423 46.6193 26.0001L43.1538 27.9481L43.0832 28.0004Z" fill="url(#paint0_linear_415_1076)"/>
<path d="M43.1546 27.9655L40.1608 25.0065L31.3427 33.7222C31.669 34.0621 32.2245 34.1057 32.8153 33.7658L43.1678 27.9524" fill="url(#paint1_linear_415_1076)"/>
<path d="M43.154 22.0432L32.8015 16.2342C32.1931 15.8943 31.6552 15.9379 31.3289 16.2778L40.147 24.9935L43.154 22.0432Z" fill="url(#paint2_linear_415_1076)"/>
<path d="M64.45 25.537V29.527C63.4467 30.2503 62.28 30.612 60.95 30.612C60.1333 30.612 59.3937 30.486 58.731 30.234C58.073 29.9773 57.5107 29.6227 57.044 29.17C56.5773 28.7127 56.218 28.169 55.966 27.539C55.714 26.909 55.588 26.216 55.588 25.46C55.588 24.6993 55.7093 24.004 55.952 23.374C56.1947 22.7393 56.5423 22.1957 56.995 21.743C57.4477 21.2857 57.9937 20.9333 58.633 20.686C59.2723 20.434 59.991 20.308 60.789 20.308C61.195 20.308 61.5707 20.3407 61.916 20.406C62.266 20.4667 62.5903 20.553 62.889 20.665C63.1877 20.777 63.463 20.9123 63.715 21.071C63.967 21.2297 64.198 21.407 64.408 21.603L63.939 22.352C63.8643 22.4687 63.7687 22.541 63.652 22.569C63.5353 22.597 63.4093 22.569 63.274 22.485C63.1387 22.4057 62.994 22.3217 62.84 22.233C62.6907 22.1443 62.518 22.0627 62.322 21.988C62.126 21.9087 61.8997 21.8457 61.643 21.799C61.3863 21.7477 61.083 21.722 60.733 21.722C60.201 21.722 59.7203 21.8107 59.291 21.988C58.8663 22.1607 58.5023 22.4103 58.199 22.737C57.8957 23.059 57.6623 23.451 57.499 23.913C57.3357 24.375 57.254 24.8907 57.254 25.46C57.254 26.062 57.3403 26.601 57.513 27.077C57.6857 27.5483 57.9307 27.9497 58.248 28.281C58.5653 28.6077 58.948 28.8573 59.396 29.03C59.8487 29.2027 60.3527 29.289 60.908 29.289C61.3233 29.289 61.692 29.2447 62.014 29.156C62.3407 29.0673 62.6603 28.9437 62.973 28.785V26.783H61.566C61.4587 26.783 61.3747 26.755 61.314 26.699C61.2533 26.6383 61.223 26.5613 61.223 26.468V25.537H64.45ZM69.1075 23.248C69.6348 23.248 70.1108 23.3343 70.5355 23.507C70.9648 23.6797 71.3288 23.9247 71.6275 24.242C71.9308 24.5593 72.1642 24.9443 72.3275 25.397C72.4908 25.8497 72.5725 26.3583 72.5725 26.923C72.5725 27.4877 72.4908 27.9963 72.3275 28.449C72.1642 28.9017 71.9308 29.289 71.6275 29.611C71.3288 29.9283 70.9648 30.1733 70.5355 30.346C70.1108 30.5187 69.6348 30.605 69.1075 30.605C68.5755 30.605 68.0948 30.5187 67.6655 30.346C67.2408 30.1733 66.8768 29.9283 66.5735 29.611C66.2702 29.289 66.0368 28.9017 65.8735 28.449C65.7102 27.9963 65.6285 27.4877 65.6285 26.923C65.6285 26.3583 65.7102 25.8497 65.8735 25.397C66.0368 24.9443 66.2702 24.5593 66.5735 24.242C66.8768 23.9247 67.2408 23.6797 67.6655 23.507C68.0948 23.3343 68.5755 23.248 69.1075 23.248ZM69.1075 29.429C69.7515 29.429 70.2298 29.2143 70.5425 28.785C70.8598 28.351 71.0185 27.7327 71.0185 26.93C71.0185 26.1273 70.8598 25.509 70.5425 25.075C70.2298 24.6363 69.7515 24.417 69.1075 24.417C68.4542 24.417 67.9688 24.6363 67.6515 25.075C67.3342 25.509 67.1755 26.1273 67.1755 26.93C67.1755 27.7327 67.3342 28.351 67.6515 28.785C67.9688 29.2143 68.4542 29.429 69.1075 29.429ZM77.1056 23.248C77.6329 23.248 78.1089 23.3343 78.5336 23.507C78.9629 23.6797 79.3269 23.9247 79.6256 24.242C79.9289 24.5593 80.1622 24.9443 80.3256 25.397C80.4889 25.8497 80.5706 26.3583 80.5706 26.923C80.5706 27.4877 80.4889 27.9963 80.3256 28.449C80.1622 28.9017 79.9289 29.289 79.6256 29.611C79.3269 29.9283 78.9629 30.1733 78.5336 30.346C78.1089 30.5187 77.6329 30.605 77.1056 30.605C76.5736 30.605 76.0929 30.5187 75.6636 30.346C75.2389 30.1733 74.8749 29.9283 74.5716 29.611C74.2682 29.289 74.0349 28.9017 73.8716 28.449C73.7082 27.9963 73.6266 27.4877 73.6266 26.923C73.6266 26.3583 73.7082 25.8497 73.8716 25.397C74.0349 24.9443 74.2682 24.5593 74.5716 24.242C74.8749 23.9247 75.2389 23.6797 75.6636 23.507C76.0929 23.3343 76.5736 23.248 77.1056 23.248ZM77.1056 29.429C77.7496 29.429 78.2279 29.2143 78.5406 28.785C78.8579 28.351 79.0166 27.7327 79.0166 26.93C79.0166 26.1273 78.8579 25.509 78.5406 25.075C78.2279 24.6363 77.7496 24.417 77.1056 24.417C76.4522 24.417 75.9669 24.6363 75.6496 25.075C75.3322 25.509 75.1736 26.1273 75.1736 26.93C75.1736 27.7327 75.3322 28.351 75.6496 28.785C75.9669 29.2143 76.4522 29.429 77.1056 29.429ZM84.5099 26.867C84.9766 26.867 85.3266 26.748 85.5599 26.51C85.7933 26.272 85.9099 25.9617 85.9099 25.579C85.9099 25.187 85.7933 24.8767 85.5599 24.648C85.3266 24.4193 84.9766 24.305 84.5099 24.305C84.0479 24.305 83.6979 24.4193 83.4599 24.648C83.2266 24.8767 83.1099 25.187 83.1099 25.579C83.1099 25.7657 83.1403 25.9383 83.2009 26.097C83.2616 26.2557 83.3503 26.3933 83.4669 26.51C83.5836 26.622 83.7283 26.7107 83.9009 26.776C84.0783 26.8367 84.2813 26.867 84.5099 26.867ZM86.6029 30.85C86.6029 30.6913 86.5563 30.5653 86.4629 30.472C86.3743 30.374 86.2529 30.2993 86.0989 30.248C85.9449 30.192 85.7653 30.1523 85.5599 30.129C85.3546 30.101 85.1353 30.0823 84.9019 30.073C84.6733 30.059 84.4376 30.0473 84.1949 30.038C83.9569 30.024 83.7259 30.0007 83.5019 29.968C83.2779 30.0847 83.0936 30.2247 82.9489 30.388C82.8089 30.5513 82.7389 30.7403 82.7389 30.955C82.7389 31.095 82.7739 31.2257 82.8439 31.347C82.9186 31.4683 83.0306 31.5733 83.1799 31.662C83.3339 31.7507 83.5276 31.8207 83.7609 31.872C83.9989 31.9233 84.2836 31.949 84.6149 31.949C85.2776 31.949 85.7746 31.8463 86.1059 31.641C86.4373 31.4357 86.6029 31.172 86.6029 30.85ZM88.1149 23.619V24.179C88.1149 24.3657 88.0029 24.48 87.7789 24.522L87.0649 24.641C87.1863 24.9117 87.2469 25.2127 87.2469 25.544C87.2469 25.894 87.1769 26.2113 87.0369 26.496C86.9016 26.7807 86.7126 27.0233 86.4699 27.224C86.2273 27.4247 85.9379 27.5787 85.6019 27.686C85.2659 27.7933 84.9019 27.847 84.5099 27.847C84.3606 27.847 84.2136 27.84 84.0689 27.826C83.9289 27.8073 83.7913 27.784 83.6559 27.756C83.5206 27.8353 83.4203 27.9193 83.3549 28.008C83.2896 28.0967 83.2569 28.1877 83.2569 28.281C83.2569 28.435 83.3246 28.5493 83.4599 28.624C83.5953 28.6987 83.7726 28.7523 83.9919 28.785C84.2159 28.8177 84.4703 28.8387 84.7549 28.848C85.0396 28.8573 85.3289 28.8737 85.6229 28.897C85.9169 28.9203 86.2063 28.96 86.4909 29.016C86.7756 29.0673 87.0276 29.156 87.2469 29.282C87.4709 29.4033 87.6506 29.569 87.7859 29.779C87.9213 29.989 87.9889 30.262 87.9889 30.598C87.9889 30.906 87.9119 31.207 87.7579 31.501C87.6039 31.795 87.3799 32.0563 87.0859 32.285C86.7966 32.5137 86.4419 32.6957 86.0219 32.831C85.6019 32.971 85.1236 33.041 84.5869 33.041C84.0549 33.041 83.5906 32.9897 83.1939 32.887C82.8019 32.7843 82.4729 32.6443 82.2069 32.467C81.9456 32.2943 81.7496 32.0937 81.6189 31.865C81.4929 31.6363 81.4299 31.3983 81.4299 31.151C81.4299 30.815 81.5349 30.528 81.7449 30.29C81.9596 30.052 82.2489 29.8653 82.6129 29.73C82.4169 29.6367 82.2583 29.5083 82.1369 29.345C82.0203 29.1817 81.9619 28.967 81.9619 28.701C81.9619 28.491 82.0389 28.2717 82.1929 28.043C82.3469 27.8143 82.5779 27.6207 82.8859 27.462C82.5313 27.266 82.2513 27.007 82.0459 26.685C81.8406 26.3583 81.7379 25.978 81.7379 25.544C81.7379 25.1893 81.8056 24.8697 81.9409 24.585C82.0809 24.3003 82.2746 24.0577 82.5219 23.857C82.7693 23.6563 83.0609 23.5023 83.3969 23.395C83.7376 23.2877 84.1086 23.234 84.5099 23.234C85.1259 23.234 85.6626 23.3623 86.1199 23.619H88.1149ZM90.8367 20.14V30.5H89.3317V20.14H90.8367ZM97.3773 26.125C97.3773 25.873 97.34 25.6397 97.2653 25.425C97.1953 25.2057 97.0903 25.0167 96.9503 24.858C96.8103 24.6947 96.6353 24.5687 96.4253 24.48C96.22 24.3867 95.982 24.34 95.7113 24.34C95.1653 24.34 94.736 24.4963 94.4233 24.809C94.1107 25.1217 93.9123 25.5603 93.8283 26.125H97.3773ZM93.7863 27.049C93.805 27.455 93.868 27.8073 93.9753 28.106C94.0827 28.4 94.225 28.645 94.4023 28.841C94.5843 29.037 94.799 29.184 95.0463 29.282C95.2983 29.3753 95.5783 29.422 95.8863 29.422C96.1803 29.422 96.4347 29.3893 96.6493 29.324C96.864 29.254 97.0507 29.1793 97.2093 29.1C97.368 29.016 97.5033 28.9413 97.6153 28.876C97.7273 28.806 97.83 28.771 97.9233 28.771C98.0447 28.771 98.138 28.8177 98.2033 28.911L98.6303 29.464C98.453 29.674 98.2523 29.8513 98.0283 29.996C97.8043 30.1407 97.5663 30.2597 97.3143 30.353C97.0623 30.4417 96.8033 30.5047 96.5373 30.542C96.2713 30.584 96.0123 30.605 95.7603 30.605C95.2657 30.605 94.806 30.5233 94.3813 30.36C93.9613 30.192 93.595 29.947 93.2823 29.625C92.9743 29.303 92.7317 28.904 92.5543 28.428C92.3817 27.952 92.2953 27.4037 92.2953 26.783C92.2953 26.2883 92.3723 25.8263 92.5263 25.397C92.685 24.9677 92.909 24.5943 93.1983 24.277C93.4923 23.9597 93.847 23.71 94.2623 23.528C94.6823 23.3413 95.156 23.248 95.6833 23.248C96.122 23.248 96.528 23.3203 96.9013 23.465C97.2747 23.605 97.5967 23.8127 97.8673 24.088C98.138 24.3633 98.348 24.7017 98.4973 25.103C98.6513 25.4997 98.7283 25.9523 98.7283 26.461C98.7283 26.6943 98.7027 26.8507 98.6513 26.93C98.6 27.0093 98.5067 27.049 98.3713 27.049H93.7863ZM107.034 25.558C107.398 25.558 107.718 25.5113 107.993 25.418C108.273 25.3247 108.504 25.194 108.686 25.026C108.873 24.8533 109.013 24.6457 109.106 24.403C109.2 24.1603 109.246 23.8897 109.246 23.591C109.246 23.297 109.2 23.0333 109.106 22.8C109.018 22.5667 108.882 22.3683 108.7 22.205C108.518 22.0417 108.287 21.918 108.007 21.834C107.732 21.7453 107.408 21.701 107.034 21.701H105.536V25.558H107.034ZM107.034 20.42C107.692 20.42 108.262 20.497 108.742 20.651C109.228 20.805 109.627 21.022 109.939 21.302C110.257 21.5773 110.492 21.911 110.646 22.303C110.8 22.6903 110.877 23.1197 110.877 23.591C110.877 24.0717 110.796 24.5127 110.632 24.914C110.469 25.3107 110.226 25.6537 109.904 25.943C109.582 26.2277 109.181 26.4517 108.7 26.615C108.224 26.7737 107.669 26.853 107.034 26.853H105.536V30.5H103.898V20.42H107.034ZM113.655 20.14V30.5H112.15V20.14H113.655ZM119.328 27.378C118.791 27.3967 118.338 27.441 117.97 27.511C117.601 27.5763 117.302 27.6627 117.074 27.77C116.845 27.8727 116.679 27.9963 116.577 28.141C116.479 28.2857 116.43 28.4443 116.43 28.617C116.43 28.785 116.455 28.9297 116.507 29.051C116.563 29.1677 116.637 29.2657 116.731 29.345C116.829 29.4197 116.941 29.4757 117.067 29.513C117.197 29.5457 117.34 29.562 117.494 29.562C117.886 29.562 118.222 29.4897 118.502 29.345C118.786 29.1957 119.062 28.981 119.328 28.701V27.378ZM115.338 24.354C116.145 23.6027 117.106 23.227 118.222 23.227C118.632 23.227 118.996 23.2947 119.314 23.43C119.636 23.5607 119.904 23.7473 120.119 23.99C120.338 24.2327 120.504 24.522 120.616 24.858C120.732 25.1893 120.791 25.558 120.791 25.964V30.5H120.119C119.974 30.5 119.864 30.479 119.79 30.437C119.715 30.3903 119.652 30.2993 119.601 30.164L119.454 29.583C119.272 29.7463 119.092 29.8933 118.915 30.024C118.737 30.15 118.553 30.2573 118.362 30.346C118.175 30.4347 117.972 30.5 117.753 30.542C117.538 30.5887 117.3 30.612 117.039 30.612C116.749 30.612 116.479 30.5723 116.227 30.493C115.979 30.4137 115.765 30.2947 115.583 30.136C115.401 29.9727 115.256 29.772 115.149 29.534C115.046 29.296 114.995 29.016 114.995 28.694C114.995 28.4187 115.067 28.1503 115.212 27.889C115.361 27.6277 115.604 27.3943 115.94 27.189C116.28 26.979 116.726 26.8063 117.277 26.671C117.832 26.5357 118.516 26.4587 119.328 26.44V25.964C119.328 25.4507 119.218 25.068 118.999 24.816C118.779 24.564 118.457 24.438 118.033 24.438C117.743 24.438 117.501 24.4753 117.305 24.55C117.109 24.62 116.938 24.697 116.794 24.781C116.649 24.865 116.521 24.9443 116.409 25.019C116.297 25.089 116.178 25.124 116.052 25.124C115.949 25.124 115.86 25.0983 115.786 25.047C115.716 24.991 115.657 24.9233 115.611 24.844L115.338 24.354ZM128.697 23.36L124.763 32.53C124.712 32.6373 124.649 32.7213 124.574 32.782C124.504 32.8427 124.395 32.873 124.245 32.873H123.132L124.448 30.017L121.536 23.36H122.845C122.971 23.36 123.067 23.3903 123.132 23.451C123.202 23.507 123.254 23.5747 123.286 23.654L124.987 27.707C125.029 27.8237 125.067 27.9403 125.099 28.057C125.137 28.169 125.172 28.2857 125.204 28.407C125.242 28.2857 125.279 28.1667 125.316 28.05C125.354 27.9333 125.396 27.8167 125.442 27.7L127.073 23.654C127.106 23.57 127.16 23.5 127.234 23.444C127.314 23.388 127.4 23.36 127.493 23.36H128.697Z" fill="black"/>
<defs>
<linearGradient id="paint0_linear_415_1076" x1="45.9756" y1="25.0065" x2="28.8287" y2="25.0065" gradientUnits="userSpaceOnUse">
<stop stop-color="#FEE000"/>
<stop offset="0.42" stop-color="#FBBC0E"/>
<stop offset="0.78" stop-color="#FAA418"/>
<stop offset="1" stop-color="#F99B1C"/>
</linearGradient>
<linearGradient id="paint1_linear_415_1076" x1="41.5276" y1="26.6145" x2="25.5876" y2="42.7374" gradientUnits="userSpaceOnUse">
<stop stop-color="#EF4547"/>
<stop offset="1" stop-color="#C6186D"/>
</linearGradient>
<linearGradient id="paint2_linear_415_1076" x1="25.3282" y1="7.3921" x2="38.3399" y2="20.5567" gradientUnits="userSpaceOnUse">
<stop stop-color="#279E6F"/>
<stop offset="0.04" stop-color="#2BA06F"/>
<stop offset="0.46" stop-color="#53B26C"/>
<stop offset="0.8" stop-color="#6BBD6A"/>
<stop offset="1" stop-color="#74C169"/>
</linearGradient>
</defs>
</svg>
